HIERARCHY
ROOT root
{
	OFFSET 0.000000 0.000000 0.000000
	CHANNELS 6 Xposition Yposition Zposition Zrotation Yrotation Xrotation
	JOINT lhip
	{
		OFFSET 0.058581 -0.082280 -0.017664
		CHANNELS 3 Zrotation Yrotation Xrotation
		JOINT lknee
		{
			OFFSET 0.043451 -0.386469 0.008037
			CHANNELS 3 Zrotation Yrotation Xrotation
			JOINT lankle
			{
				OFFSET -0.014790 -0.426874 -0.037428
				CHANNELS 3 Zrotation Yrotation Xrotation
				JOINT ltoe
				{
					OFFSET 0.041054 -0.060286 0.122042
					CHANNELS 3 Zrotation Yrotation Xrotation
					End Site
					{
						OFFSET 0.000000 0.000000 0.000000
					}
				}
			}
		}
	}
	JOINT rhip
	{
		OFFSET -0.060310 -0.090513 -0.013543
		CHANNELS 3 Zrotation Yrotation Xrotation
		JOINT rknee
		{
			OFFSET -0.043257 -0.383688 -0.004843
			CHANNELS 3 Zrotation Yrotation Xrotation
			JOINT rankle
			{
				OFFSET 0.019056 -0.420046 -0.034562
				CHANNELS 3 Zrotation Yrotation Xrotation
				JOINT rtoe
				{
					OFFSET -0.034840 -0.062106 0.130323
					CHANNELS 3 Zrotation Yrotation Xrotation
					End Site
					{
						OFFSET 0.000000 0.000000 0.000000
					}
				}
			}
		}
	}
	JOINT lowerback
	{
		OFFSET 0.004439 0.124404 -0.038385
		CHANNELS 3 Zrotation Yrotation Xrotation
		JOINT upperback
		{
			OFFSET 0.004488 0.137956 0.026820
			CHANNELS 3 Zrotation Yrotation Xrotation
			JOINT chest
			{
				OFFSET -0.002265 0.056032 0.002855
				CHANNELS 3 Zrotation Yrotation Xrotation
				JOINT lowerneck
				{
					OFFSET -0.013390 0.211636 -0.033468
					CHANNELS 3 Zrotation Yrotation Xrotation
					JOINT upperneck
					{
						OFFSET 0.010113 0.088937 0.050410
						CHANNELS 3 Zrotation Yrotation Xrotation
						End Site
						{
							OFFSET 0.000000 0.000000 0.000000
						}
					}
				}
				JOINT lclavicle
				{
					OFFSET 0.071702 0.114000 -0.018898
					CHANNELS 3 Zrotation Yrotation Xrotation
					JOINT lshoulder
					{
						OFFSET 0.122921 0.045205 -0.019046
						CHANNELS 3 Zrotation Yrotation Xrotation
						JOINT lelbow
						{
							OFFSET 0.255332 -0.015649 -0.022946
							CHANNELS 3 Zrotation Yrotation Xrotation
							JOINT lwrist
							{
								OFFSET 0.265709 0.012698 -0.007375
								CHANNELS 3 Zrotation Yrotation Xrotation
								End Site
								{
									OFFSET 0.000000 0.000000 0.000000
								}
							}
						}
					}
				}
				JOINT rclavicle
				{
					OFFSET -0.082954 0.112472 -0.023707
					CHANNELS 3 Zrotation Yrotation Xrotation
					JOINT rshoulder
					{
						OFFSET -0.113228 0.046853 -0.008472
						CHANNELS 3 Zrotation Yrotation Xrotation
						JOINT relbow
						{
							OFFSET -0.260127 -0.014369 -0.031269
							CHANNELS 3 Zrotation Yrotation Xrotation
							JOINT rwrist
							{
								OFFSET -0.269108 0.006794 -0.006027
								CHANNELS 3 Zrotation Yrotation Xrotation
								End Site
								{
									OFFSET 0.000000 0.000000 0.000000
								}
							}
						}
					}
				}
			}
		}
	}
}
MOTION
Frames: 7
Frame Time: 0.033333
0.346164 0.354496 0.992120 95.462513 10.069107 89.790393 10.616056 3.714437 -4.327061 -4.866045 -15.069529 16.167364 1.123558 15.183266 -20.861105 0.000000 -0.000000 0.000000 -1.883632 -6.445693 -13.850040 3.518844 -0.117445 32.559332 9.242488 -15.329501 -13.661106 0.000000 -0.000000 0.000000 -3.382432 -2.370771 19.735271 -6.761786 -2.752708 -7.589994 -2.157365 -3.050585 6.617485 5.176960 -7.292990 3.501593 9.539156 4.447805 4.901744 -18.313573 4.767634 -8.929756 -24.428466 -5.691090 -9.471535 23.756856 -24.330612 -20.564677 10.779863 0.383233 5.252270 -0.494773 -5.780205 -12.707103 4.840287 -0.003345 -11.714692 -14.128560 22.028005 -14.865175 -22.384921 1.247215 16.540581 
0.356430 0.359621 0.991111 95.280917 9.590508 89.073240 10.106721 4.411306 -2.684013 -5.075616 -15.730376 15.804324 1.008417 15.221831 -21.411270 0.000000 -0.000000 0.000000 -2.473181 -6.360408 -15.683904 3.570715 -0.315387 30.977399 9.551535 -15.269696 -13.346799 0.000000 -0.000000 0.000000 -2.622136 -2.973588 20.537587 -6.291312 -2.487459 -7.768440 -1.867021 -2.970308 6.811185 4.774051 -6.936481 3.225471 8.990049 4.076341 4.434698 -17.852072 4.520057 -8.806978 -23.074819 -5.533625 -9.811801 23.370546 -24.492728 -20.770692 10.932963 0.012004 4.975862 0.133921 -5.409172 -12.536651 5.334349 0.103472 -11.323727 -14.053822 21.843468 -14.470851 -21.754175 1.359143 17.018701 
0.367029 0.364113 0.990121 95.153001 9.130685 88.469878 9.550002 4.843329 -1.253576 -5.170661 -16.231220 15.705789 0.992394 15.373053 -22.023398 0.000000 -0.000000 0.000000 -2.959875 -6.109158 -17.427862 3.612306 -0.537125 28.954830 9.972193 -15.113084 -12.817550 0.000000 -0.000000 0.000000 -1.694721 -3.701795 21.292398 -5.897027 -2.222387 -8.039953 -1.697666 -2.870147 7.062833 4.507049 -6.770244 2.800429 8.436502 3.863848 4.306187 -17.732378 4.601564 -8.761307 -22.744239 -5.668867 -9.904585 23.210226 -24.649702 -20.570411 10.650928 -0.331989 4.743548 0.671919 -5.236178 -12.305522 5.841078 0.340730 -10.980948 -14.291689 21.649975 -13.845438 -20.674575 1.736885 17.547612 
0.378317 0.367777 0.988565 94.991286 8.646394 88.011083 8.888543 5.113509 0.102805 -5.026730 -16.513835 15.554005 1.096578 15.580340 -22.677279 0.000000 -0.000000 0.000000 -3.350579 -5.792786 -19.109317 3.441632 -0.692318 26.568868 10.489945 -14.931534 -11.498187 0.000000 -0.000000 0.000000 -0.686115 -4.417906 21.785979 -5.589661 -1.928868 -8.243755 -1.544359 -2.858462 7.331445 4.199718 -6.930070 2.438761 7.810267 3.899404 4.239420 -17.902587 4.914600 -8.698603 -23.699646 -5.947468 -9.850486 23.410919 -24.703588 -20.341241 10.139399 -0.298871 4.743418 1.065182 -5.175932 -12.170521 6.109970 0.913485 -10.993199 -14.700336 21.782273 -14.136160 -20.481738 1.718926 17.979615 
0.390524 0.370697 0.986267 94.974871 8.079866 87.685322 8.036382 5.133000 1.483332 -4.590169 -16.720894 15.170378 1.357374 15.923235 -23.285725 0.000000 -0.000000 0.000000 -3.768478 -5.523110 -20.553276 3.023047 -0.894843 23.799601 11.161456 -14.961868 -9.000979 0.000000 -0.000000 0.000000 0.297585 -5.115314 22.056102 -5.282362 -1.694308 -8.420602 -1.399485 -2.942707 7.617088 3.826871 -7.359605 2.105616 7.006727 4.028821 4.316800 -18.189377 5.411032 -8.483272 -25.442301 -6.427846 -9.608254 23.595526 -24.774489 -19.984051 9.547250 -0.200739 4.571418 1.425407 -5.214317 -12.073154 6.175476 1.736533 -11.022482 -15.314947 21.927309 -14.934050 -20.657830 1.851781 18.552099 
0.403720 0.372627 0.983448 95.268860 7.461952 87.427184 7.092351 4.993685 2.885407 -3.987083 -17.129328 14.679935 1.613885 16.397468 -23.905003 0.000000 -0.000000 0.000000 -4.231563 -5.296767 -21.585166 2.534491 -1.105529 20.817737 11.759517 -15.183631 -7.132528 0.000000 -0.000000 0.000000 1.245243 -5.769975 22.285842 -4.974548 -1.582632 -8.595993 -1.227466 -3.063614 7.838982 3.370478 -7.993809 1.944590 6.287757 4.173247 4.118593 -18.387882 5.793494 -8.187936 -27.126633 -6.986523 -9.299607 23.628935 -25.042644 -19.419095 9.062408 -0.005236 4.248579 1.707711 -5.278349 -11.937637 6.429283 2.213380 -10.877546 -15.832542 22.158250 -15.471375 -20.787447 1.925198 18.950950 
0.417852 0.373134 0.980173 95.709283 6.786774 87.245080 6.262858 4.901258 4.245366 -3.520830 -17.662087 14.215100 1.771611 16.829070 -24.599930 0.000000 -0.000000 0.000000 -4.727699 -4.970217 -22.396578 2.057424 -1.342258 18.003270 12.063107 -15.527116 -6.465543 0.000000 -0.000000 0.000000 2.020263 -6.266351 22.396778 -4.620532 -1.457168 -8.658972 -0.978190 -3.184232 7.977476 2.913694 -8.571640 1.770302 5.726274 4.060820 3.719077 -18.401783 5.895917 -7.952499 -28.147400 -7.647086 -9.124602 23.749857 -25.333817 -18.975002 8.799286 0.268746 4.174976 2.123236 -5.323477 -11.790622 6.919722 2.210295 -10.552690 -16.128371 22.360394 -15.618825 -20.733925 1.660051 18.946699 
